<svg width="674" height="485" viewBox="0 0 674 485" fill="none" xmlns="http://www.w3.org/2000/svg">
<g clip-path="url(#clip0_627_2116)">
<path d="M502.329 462.423C478.548 462.423 453.258 460.696 426.725 457.255C383.278 451.619 338.393 441.598 293.31 427.473C248.227 413.347 205.649 395.964 166.752 375.806C129.176 356.333 96.6033 335.097 69.9353 312.695C43.2524 290.283 23.8225 267.826 12.1847 245.952C0.116402 223.263 -3.00646 202.195 2.90227 183.329C8.811 164.463 23.3956 148.94 46.2517 137.197C68.2915 125.873 97.0601 118.518 131.756 115.335C166.441 112.156 205.304 113.305 247.272 118.75C290.719 124.39 335.604 134.407 380.687 148.532C425.77 162.658 468.348 180.041 507.245 200.199C544.821 219.672 577.394 240.908 604.062 263.309C630.745 285.722 650.174 308.179 661.812 330.052C673.881 352.738 677.003 373.806 671.095 392.673C665.186 411.539 650.601 427.061 627.745 438.804C605.705 450.129 576.937 457.483 542.241 460.666C529.484 461.835 516.161 462.419 502.325 462.419L502.329 462.423ZM171.915 114.144C158.053 114.144 144.656 114.728 131.809 115.904C97.1836 119.08 68.4862 126.416 46.5138 137.706C23.8 149.379 9.31276 164.785 3.44896 183.501C-2.41484 202.217 0.696791 223.136 12.6902 245.683C24.2943 267.492 43.6793 289.894 70.3023 312.257C125.091 358.277 204.35 399.001 293.482 426.926C382.615 454.851 470.939 466.632 542.192 460.101C576.817 456.925 605.514 449.589 627.487 438.299C650.201 426.626 664.688 411.22 670.552 392.504C676.416 373.788 673.304 352.869 661.31 330.322C649.706 308.513 630.321 286.111 603.698 263.748C548.91 217.728 469.651 177.004 380.518 149.079C307.457 126.187 234.934 114.144 171.915 114.144Z" fill="#DBDBDB"/>
<path d="M468.543 463.16C450.731 463.16 432.173 462.115 412.983 460.03C371.884 455.558 329.68 446.474 287.54 433.022C227.667 413.909 172.227 387.179 127.211 355.723C83.3596 325.079 51.3072 291.391 34.5134 258.291C27.8445 245.151 23.662 232.194 22.0818 219.784C20.4567 207.014 21.5763 194.72 25.4106 183.25C32.1918 162.961 47.0423 145.922 69.5464 132.613C91.2567 119.772 119.145 110.92 152.437 106.306C185.714 101.693 222.717 101.543 262.419 105.861C303.518 110.332 345.722 119.417 387.862 132.872C447.735 151.985 503.175 178.715 548.191 210.171C592.039 240.815 624.095 274.503 640.889 307.599C647.557 320.739 651.74 333.696 653.32 346.106C654.945 358.876 653.826 371.17 649.991 382.64C643.21 402.929 628.36 419.968 605.856 433.277C584.145 446.118 556.257 454.97 522.965 459.584C505.774 461.966 487.584 463.16 468.543 463.16ZM207.196 103.28C188.159 103.28 169.856 104.468 152.516 106.872C84.2396 116.338 39.2913 143.529 25.9536 183.433C18.3673 206.127 21.419 231.224 35.0226 258.033C51.7752 291.047 83.7678 324.664 127.54 355.251C172.511 386.677 227.899 413.377 287.716 432.472C371.019 459.063 454.539 468.489 522.886 459.015C591.162 449.548 636.111 422.357 649.448 382.453C657.035 359.76 653.983 334.662 640.379 307.853C623.627 274.84 591.634 241.223 547.862 210.635C502.891 179.209 447.503 152.509 387.686 133.415C325.513 113.567 263.213 103.28 207.196 103.28Z" fill="#DBDBDB"/>
<path d="M437.051 464.456C424.743 464.456 412.128 463.909 399.236 462.808C360.489 459.506 320.962 451.353 281.765 438.572C229.066 421.391 180.235 396.683 140.551 367.118C101.987 338.389 73.0874 305.936 56.9676 273.267C49.3027 257.73 44.6034 242.279 43.0046 227.349C41.357 211.954 43.0083 197.091 47.9135 183.179C55.5672 161.463 70.6835 142.912 92.8394 128.034C114.22 113.676 141.229 103.329 173.113 97.2779C204.985 91.2301 240.123 89.7808 277.557 92.9714C316.304 96.2743 355.83 104.427 395.027 117.208C447.727 134.389 496.558 159.097 536.242 188.661C574.806 217.391 603.705 249.843 619.825 282.513C627.49 298.05 632.189 313.501 633.788 328.431C635.436 343.826 633.784 358.689 628.879 372.601C621.225 394.317 606.109 412.868 583.953 427.746C562.572 442.104 535.564 452.45 503.68 458.502C482.782 462.468 460.48 464.456 437.051 464.456ZM240.097 91.8629C216.751 91.8629 194.303 93.8402 173.221 97.8396C107.832 110.246 63.5204 140.62 48.4527 183.37C38.8557 210.598 41.9748 241.597 57.4768 273.016C90.7799 340.519 176.79 403.75 281.938 438.029C334.457 455.154 387.553 463.917 436.695 463.917C460.042 463.917 482.49 461.94 503.571 457.94C568.96 445.534 613.272 415.16 628.34 372.41C637.937 345.182 634.818 314.182 619.316 282.764C586.013 215.261 500.003 152.03 394.855 117.751C342.335 100.626 289.239 91.8629 240.097 91.8629Z" fill="#DBDBDB"/>
<path d="M407.867 466.25C400.498 466.25 393.043 466.029 385.49 465.587C349.087 463.453 312.245 456.233 275.988 444.122C252.742 436.359 230.362 426.758 209.468 415.583C189.195 404.742 170.297 392.411 153.301 378.93C119.841 352.39 94.1239 321.646 78.9364 290.018C61.199 253.079 58.2521 216.111 70.4141 183.101C78.9402 159.962 94.3223 139.89 116.13 123.447C137.185 107.572 163.31 95.7278 193.786 88.2457C224.251 80.7637 257.528 78.015 292.692 80.0784C329.095 82.2129 365.937 89.4328 402.194 101.543C425.44 109.306 447.82 118.908 468.714 130.082C488.987 140.923 507.881 153.255 524.881 166.736C558.341 193.275 584.058 224.02 599.246 255.648C616.983 292.587 619.93 329.555 607.768 362.565C599.242 385.704 583.86 405.776 562.052 422.219C540.997 438.093 514.872 449.938 484.396 457.42C460.473 463.296 434.812 466.25 407.867 466.25ZM270.596 79.9436C243.872 79.9436 218.054 82.8795 193.928 88.8075C131.426 104.157 87.7546 137.714 70.9532 183.303C58.8437 216.163 61.7831 252.982 79.4531 289.774C111.011 355.487 184.548 412.985 276.168 443.579C347.81 467.505 421.714 472.219 484.258 456.862C546.76 441.512 590.431 407.955 607.233 362.367C619.342 329.506 616.403 292.688 598.733 255.895C567.175 190.182 493.637 132.685 402.018 102.09C358.01 87.3957 313.151 79.9473 270.596 79.9473V79.9436Z" fill="#DBDBDB"/>
<path d="M380.96 468.497C377.905 468.497 374.834 468.452 371.749 468.366C337.693 467.4 303.533 461.112 270.215 449.676C250.332 442.853 231.216 434.315 213.4 424.301C196.09 414.576 179.917 403.409 165.333 391.111C136.748 367.014 114.236 338.441 100.224 308.479C90.5413 287.771 84.9358 266.654 83.5654 245.717C82.1462 224.061 85.2953 202.97 92.9227 183.029C102.321 158.464 117.969 136.879 139.432 118.867C160.158 101.476 185.403 88.137 214.467 79.2207C243.528 70.3044 274.94 66.26 307.835 67.1888C341.891 68.1549 376.051 74.4424 409.369 85.8789C429.252 92.7019 448.368 101.24 466.184 111.253C483.495 120.979 499.667 132.146 514.251 144.443C542.836 168.541 565.348 197.114 579.36 227.075C589.043 247.784 594.648 268.901 596.019 289.838C597.438 311.494 594.289 332.588 586.661 352.525C577.263 377.091 561.615 398.676 540.152 416.688C519.426 434.079 494.181 447.418 465.117 456.334C438.782 464.415 410.515 468.497 380.96 468.497ZM298.736 67.5782C269.578 67.5782 241.177 71.63 214.64 79.7712C155.024 98.0606 111.989 134.808 93.4582 183.235C78.398 222.604 80.918 265.826 100.745 308.239C130 370.815 191.84 422.17 270.402 449.136C336.214 471.729 405.307 474.092 464.952 455.791C524.567 437.501 567.602 400.754 586.133 352.327C601.194 312.958 598.674 269.736 578.847 227.323C549.591 164.747 487.756 113.392 409.19 86.4256C372.659 73.8881 335.11 67.5782 298.736 67.5782Z" fill="#DBDBDB"/>
<path d="M356.269 471.147C325.149 471.147 294.265 465.792 264.44 455.225C231.223 443.455 201.623 426.072 176.465 403.566C164.404 392.777 153.519 380.883 144.113 368.226C134.778 355.659 126.854 342.279 120.564 328.449C109.971 305.168 104.073 280.984 103.025 256.568C101.943 231.295 106.114 206.527 115.43 182.957C125.701 156.965 141.615 133.864 162.734 114.286C183.13 95.3823 207.491 80.5493 235.147 70.195C262.8 59.8445 292.351 54.4969 322.977 54.3022C354.678 54.1037 386.165 59.455 416.543 70.2212C449.76 81.991 479.36 99.3742 504.519 121.88C516.58 132.669 527.465 144.562 536.871 157.22C546.206 169.787 554.129 183.167 560.42 196.997C571.013 220.278 576.91 244.462 577.959 268.877C579.041 294.151 574.87 318.919 565.553 342.488C555.282 368.481 539.369 391.582 518.25 411.16C497.854 430.064 473.493 444.897 445.836 455.251C418.183 465.601 388.632 470.949 358.003 471.144C357.422 471.144 356.842 471.147 356.261 471.147H356.269ZM324.913 54.9238C232.092 54.9238 147.542 103.246 115.962 183.171C97.7188 229.34 99.5387 280.853 121.084 328.217C147.142 385.497 199.463 431.595 264.631 454.689C388.441 498.563 523.2 448.136 565.026 342.282C583.268 296.113 581.449 244.6 559.903 197.236C533.846 139.956 481.524 93.8582 416.356 70.7642C386.022 60.0167 355.03 54.9276 324.913 54.9276V54.9238Z" fill="#DBDBDB"/>
<path d="M333.847 474.161C308.093 474.161 282.852 469.671 258.663 460.773C231.441 450.76 207.165 435.751 186.511 416.162C166.561 397.243 150.789 374.849 139.63 349.602C128.292 323.951 122.294 296.659 121.792 268.487C121.271 239.319 126.705 210.518 137.934 182.881C149.078 155.462 165.257 130.844 186.032 109.701C206.094 89.2846 229.576 72.9537 255.821 61.1689C282.065 49.3841 309.752 42.7372 338.112 41.4115C367.476 40.0409 396.275 44.4598 423.718 54.5556C450.94 64.5692 475.215 79.5782 495.869 99.1671C515.82 118.086 531.591 140.479 542.75 165.727C554.084 191.378 560.087 218.67 560.588 246.842C561.109 276.01 555.676 304.811 544.446 332.447C533.303 359.867 517.123 384.485 496.349 405.628C476.282 426.044 452.805 442.375 426.56 454.16C400.315 465.945 372.629 472.592 344.268 473.917C340.79 474.078 337.311 474.161 333.847 474.161ZM348.638 41.7897C259.573 41.7897 173.896 95.9016 138.462 183.099C116.284 237.671 116.887 296.722 140.151 349.374C163.018 401.115 205.177 440.488 258.857 460.238C283.387 469.263 308.703 473.543 333.742 473.543C422.808 473.543 508.484 419.431 543.918 332.234C566.096 277.661 565.494 218.61 542.226 165.959C519.358 114.217 477.2 74.8448 423.519 55.0949C398.989 46.07 373.677 41.7897 348.638 41.7897Z" fill="#DBDBDB"/>
<path d="M313.544 477.499C292.553 477.499 272.217 473.758 252.888 466.324C231.166 457.97 211.785 445.324 195.28 428.742C179.336 412.722 166.481 393.455 157.075 371.481C132.849 314.882 134.073 246.117 160.441 182.812C172.454 153.966 188.907 127.827 209.336 105.123C229.07 83.1896 251.667 65.3682 276.504 52.1492C301.341 38.9302 327.166 30.98 353.258 28.5235C380.274 25.9808 406.399 29.4709 430.899 38.8927C452.62 47.2473 472.002 59.8934 488.507 76.4752C504.451 92.4954 517.306 111.762 526.712 133.736C550.938 190.335 549.71 259.1 523.345 322.405C511.333 351.251 494.88 377.39 474.45 400.094C454.717 422.028 432.12 439.849 407.286 453.068C382.449 466.287 356.624 474.237 330.533 476.694C324.83 477.229 319.165 477.499 313.544 477.499ZM370.306 28.34C286.27 28.34 200.338 88.5034 160.966 183.033C134.661 246.196 133.433 314.8 157.599 371.256C176.7 415.879 210.613 449.454 253.094 465.793C272.632 473.308 293.006 476.881 313.477 476.881C397.513 476.888 483.445 416.717 522.817 322.192C549.122 259.029 550.35 190.425 526.184 133.969C507.083 89.346 473.17 55.7704 430.689 39.432C411.151 31.9162 390.777 28.34 370.306 28.34Z" fill="#DBDBDB"/>
<path d="M295.175 481.119C278.374 481.119 262.28 478.029 247.111 471.869C213.909 458.388 188.114 431.287 172.518 393.491C160.712 364.874 155.271 330.83 156.788 295.041C157.559 276.808 160.12 258.14 164.396 239.559C168.8 220.423 175.038 201.306 182.943 182.736C195.827 152.463 212.546 124.808 232.631 100.538C252.035 77.0919 273.749 57.7763 297.171 43.1268C320.6 28.4698 344.557 19.224 368.379 15.6365C393.051 11.9217 416.499 14.4793 438.063 23.2309C471.265 36.7083 497.06 63.8129 512.656 101.609C524.462 130.226 529.903 164.27 528.386 200.059C527.615 218.292 525.054 236.96 520.778 255.541C516.374 274.677 510.136 293.794 502.231 312.364C489.347 342.637 472.628 370.292 452.543 394.562C433.139 418.008 411.425 437.324 388.003 451.973C364.574 466.63 340.617 475.876 316.795 479.464C309.475 480.564 302.263 481.119 295.175 481.119ZM389.763 14.5243C359.871 14.5243 328.302 24.3356 297.482 43.6136C249.414 73.6804 208.925 123.167 183.474 182.964C152.568 255.571 148.674 334.193 173.054 393.278C188.589 430.928 214.276 457.924 247.332 471.345C289.817 488.593 339.67 481.542 387.708 451.498C435.775 421.431 476.264 371.944 501.715 312.147C532.621 239.54 536.516 160.919 512.136 101.834C496.6 64.1837 470.913 37.1876 437.857 23.7664C422.632 17.5875 406.46 14.5243 389.763 14.5243Z" fill="#DBDBDB"/>
<path d="M278.576 484.998C265.422 484.998 252.964 482.471 241.338 477.423C222.709 469.338 207.338 455.272 195.659 435.62C184.385 416.656 177.005 393.312 173.717 366.237C170.433 339.173 171.403 309.747 176.608 278.767C181.992 246.7 191.698 214.368 205.459 182.668C219.216 150.969 236.204 121.797 255.945 95.9619C275.019 71.003 295.849 50.1971 317.859 34.1133C339.88 18.022 361.973 7.47301 383.522 2.75835C405.854 -2.12858 426.62 -0.507092 445.253 7.57786C463.881 15.6628 479.252 29.7282 490.931 49.3807C502.206 68.3442 509.586 91.6891 512.874 118.764C516.158 145.827 515.188 175.257 509.983 206.234C504.599 238.301 494.893 270.633 481.132 302.336C467.375 334.036 450.386 363.207 430.646 389.042C411.572 414.001 390.741 434.807 368.731 450.891C346.71 466.982 324.618 477.531 303.069 482.246C294.674 484.081 286.496 484.998 278.576 484.998ZM407.808 0.545188C379.736 0.545188 348.987 12.0678 318.193 34.5702C273.012 67.584 233.16 120.258 205.979 182.893C178.794 245.528 167.539 310.616 174.282 366.166C181.019 421.663 204.916 460.987 241.566 476.895C278.217 492.806 323.259 483.403 368.394 450.423C413.575 417.409 453.427 364.735 480.608 302.1C507.789 239.465 519.048 174.377 512.305 118.827C505.568 63.33 481.671 24.0062 445.021 8.09839C433.375 3.04295 420.88 0.545188 407.808 0.545188Z" fill="#DBDBDB"/>
</g>
<defs>
<clipPath id="clip0_627_2116">
<rect width="674" height="485" fill="white"/>
</clipPath>
</defs>
</svg>
