<svg width="25" height="25" viewBox="0 0 25 25" fill="none" xmlns="http://www.w3.org/2000/svg">
<path d="M8.94716 0C4.01542 0 6.14914e-06 4.01384 0 8.94558C6.14914e-06 13.8773 4.01542 17.8927 8.94716 17.8927C11.1221 17.8927 13.1169 17.1108 14.6694 15.8148L23.0145 24.1615C23.783 24.93 24.9364 23.7767 24.1678 23.0081L15.8212 14.6615C17.1133 13.11 17.8927 11.117 17.8927 8.94558C17.8927 4.01384 13.8789 0 8.94716 0ZM8.94716 1.62676C12.9997 1.62679 16.266 4.893 16.266 8.94558C16.266 12.9982 12.9997 16.266 8.94716 16.266C4.89458 16.266 1.62676 12.9982 1.62676 8.94558C1.62676 4.893 4.89458 1.62679 8.94716 1.62676Z" fill="white"/>
</svg>
